<?xml version="1.0" encoding="utf-8"?>
<!-- Generator: Adobe Illustrator 15.1.0, SVG Export Plug-In . SVG Version: 6.00 Build 0)  -->
<!DOCTYPE svg PUBLIC "-//W3C//DTD SVG 1.1//EN" "http://www.w3.org/Graphics/SVG/1.1/DTD/svg11.dtd">
<svg version="1.1" id="Layer_1" xmlns="http://www.w3.org/2000/svg" xmlns:xlink="http://www.w3.org/1999/xlink" x="0px" y="0px"
	 width="50px" height="50px" viewBox="0 0 50 50" enable-background="new 0 0 50 50" xml:space="preserve">
<g>
	<path fill="#FFFFFF" d="M49.195,21.02c0.305-0.61,0.305-1.53,0-2.145L47.05,16.73c-0.305-0.305-0.61-0.305-1.225-0.305
		c-0.306,0-0.921,0-1.226,0.305L28.064,32.96v1.226v3.064h4.9L49.195,21.02z"/>
	<path fill="#FFFFFF" d="M9.69,9.685h30.625v3.065H9.69V9.685L9.69,9.685z"/>
	<path fill="#FFFFFF" d="M9.69,18.875h28.48l2.145-2.145v-0.92H9.69V18.875z"/>
	<path fill="#FFFFFF" d="M9.69,34.186H25v3.064H9.69V34.186L9.69,34.186z"/>
	<path fill="#FFFFFF" d="M9.69,25h22.355l3.061-3.065H9.69V25z"/>
	<path fill="#FFFFFF" d="M46.436,28.061v12.25c0,3.369-2.756,6.125-6.125,6.125H9.69c-3.37,0-6.125-2.756-6.125-6.125V9.685
		c0-3.37,2.755-6.125,6.125-6.125h30.625c3.371,0,6.125,2.755,6.125,6.125v3.675c0.92,0,1.84,0.61,2.756,1.225L49.5,14.89v-5.2
		c0-5.21-3.98-9.19-9.186-9.19H9.69C4.48,0.5,0.5,4.48,0.5,9.69v30.625c0,5.205,3.98,9.186,9.19,9.186h30.625
		c5.205,0,9.186-3.98,9.186-9.186V25L46.436,28.061z"/>
	<path fill="#FFFFFF" d="M9.69,31.125h16.23l0.305-0.305l2.756-2.756H9.69V31.125z"/>
</g>
</svg>
